<?xml version="1.0" encoding="UTF-8" standalone="no"?>
<svg
   xmlns:dc="http://purl.org/dc/elements/1.1/"
   xmlns:cc="http://creativecommons.org/ns#"
   xmlns:rdf="http://www.w3.org/1999/02/22-rdf-syntax-ns#"
   xmlns:svg="http://www.w3.org/2000/svg"
   xmlns="http://www.w3.org/2000/svg"
   version="1.0"
   width="750"
   height="600"
   id="svg2">
  <defs
     id="defs13" />
  <metadata
     id="metadata7">
    <rdf:RDF>
      <cc:Work
         rdf:about="">
        <dc:format>image/svg+xml</dc:format>
        <dc:type
           rdf:resource="http://purl.org/dc/dcmitype/StillImage" />
        <dc:title />
      </cc:Work>
    </rdf:RDF>
  </metadata>
  <g
     transform="translate(0 0.00048)"
     id="layer1">
    <rect
       x="0"
       y="-0.00048"
       width="750"
       height="600"
       ry="37.5"
       rx="37.5"
       id="rect3805" />
    <path
       fill="#fff"
       d="m125 25 14.438 100h-114.44l65 450h570l65-450h-114.44l14.438-100h-500z"
       id="rect2989" />
    <g
       id="routenum">
      <path
         d="m214.44 377.46v72.537h-42.985v-72.537h-124.48v-30.448l124.47-197.01h42.985v187.16h17.91v40.299h-17.91zm-42.985-152.69-71.642 112.39h71.642v-112.39z"
         style=""
         id="path13" />
      <path
         d="m462.99 299.55q0 34.478-4.0298 58.657-3.5821 24.179-12.985 45.672-11.194 26.866-28.209 39.403-16.567 12.09-42.09 12.09-26.866 0-43.881-12.09-16.567-12.537-27.761-39.403-9.403-21.94-13.433-45.672-3.5821-24.179-3.5821-58.657 0-34.03 3.5821-58.209 4.0298-24.627 13.433-46.119 11.642-26.866 28.209-38.507 17.015-12.09 43.433-12.09 25.97 0 42.537 12.09 16.567 11.642 27.761 39.403 4.4776 11.194 7.6119 22.388 3.5821 11.194 5.3731 23.731 2.2388 12.09 3.1343 26.418 0.89552 13.881 0.89552 30.896zm-41.194 0q0-12.537-0.89552-22.836-0.44776-10.299-1.791-18.806-0.89552-8.9552-2.6866-17.015-1.791-8.0597-4.0298-16.119-5.8209-20.149-14.776-29.104-8.5075-8.9552-21.94-8.9552-27.761 0-38.06 37.164-5.3731 17.015-7.6119 34.478-1.791 17.015-1.791 42.09 0 12.09 0.44776 22.388 0.89552 9.8508 1.791 18.806 1.3433 8.5075 3.1343 17.015t4.0299 17.463q10.298 37.164 38.06 37.164 13.433 0 21.94-8.9552 8.9552-8.9552 14.776-28.209 2.6866-8.9552 4.4776-17.015 1.791-8.5075 2.6866-17.463 1.3433-8.9552 1.791-18.806 0.44776-10.299 0.44776-23.284z"
         style=""
         id="path15" />
      <path
         d="m667.44 377.46v72.537h-42.985v-72.537h-124.48v-30.448l124.48-197.01h42.985v187.16h17.91v40.299h-17.91zm-42.985-152.69-71.642 112.39h71.642v-112.39z"
         style=""
         id="path17" />
    </g>
  </g>
</svg>
